<?xml version="1.0" standalone="no"?>
<svg xmlns="http://www.w3.org/2000/svg" width="24" height="24"><rect width="24" height="24" opacity="0"></rect><g><path d="M17.5 12.36Q16.54 12.36 15.53 12.84L13.03 10.34L19.49 3.89Q19.7 3.67 19.7 3.36Q19.7 3.05 19.49 2.83Q19.27 2.62 18.96 2.62Q18.65 2.62 18.43 2.83L11.98 9.29L5.52 2.83Q5.3 2.62 5 2.62Q4.7 2.62 4.46 2.83Q4.25 3.05 4.25 3.36Q4.25 3.67 4.46 3.89L10.92 10.34L8.42 12.84Q7.46 12.36 6.5 12.36Q5.28 12.36 4.25 12.97Q3.22 13.58 2.6 14.62Q1.99 15.65 1.99 16.87Q1.99 18.1 2.59 19.13Q3.19 20.16 4.24 20.76Q5.28 21.36 6.5 21.36Q7.73 21.36 8.76 20.76Q9.79 20.16 10.39 19.13Q10.99 18.1 10.99 16.87Q10.99 15.94 10.66 15.13Q10.32 14.33 9.67 13.7L11.98 11.4L14.28 13.73Q13.68 14.33 13.34 15.14Q13.01 15.96 13.01 16.87Q13.01 18.1 13.61 19.13Q14.21 20.16 15.24 20.76Q16.27 21.36 17.5 21.36Q18.72 21.36 19.76 20.76Q20.81 20.16 21.41 19.13Q22.01 18.1 22.01 16.87Q22.01 15.65 21.4 14.62Q20.78 13.58 19.75 12.97Q18.72 12.36 17.5 12.36ZM6.5 19.87Q5.69 19.87 5 19.46Q4.32 19.06 3.91 18.37Q3.5 17.69 3.5 16.87Q3.5 16.06 3.91 15.37Q4.32 14.69 5 14.28Q5.69 13.87 6.5 13.87Q7.3 13.87 7.99 14.28Q8.69 14.69 9.1 15.37Q9.5 16.06 9.5 16.87Q9.5 17.69 9.1 18.37Q8.69 19.06 7.99 19.46Q7.3 19.87 6.5 19.87ZM17.5 19.87Q16.68 19.87 16 19.46Q15.31 19.06 14.9 18.37Q14.5 17.69 14.5 16.87Q14.5 16.06 14.9 15.37Q15.31 14.69 16 14.28Q16.68 13.87 17.5 13.87Q18.31 13.87 19 14.28Q19.68 14.69 20.09 15.37Q20.5 16.06 20.5 16.87Q20.5 17.69 20.09 18.37Q19.68 19.06 19 19.46Q18.31 19.87 17.5 19.87Z" fill="rgba(0,0,0,0.9019607843137255)"></path></g></svg>