<?xml version="1.0" standalone="no"?>
<svg xmlns="http://www.w3.org/2000/svg" width="24" height="24"><rect width="24" height="24" opacity="0"></rect><g mask="url(#hms_mask_0)"><path d="M18 2.83Q18.62 2.83 19.06 3.26Q19.49 3.7 19.49 4.32L19.49 20.33Q19.49 20.95 19.06 21.4Q18.62 21.84 18 21.84L6 21.84Q5.38 21.84 4.93 21.4Q4.49 20.95 4.49 20.33L4.49 4.32Q4.49 3.7 4.93 3.26Q5.38 2.83 6 2.83L18 2.83ZM6 1.32Q5.18 1.32 4.5 1.73Q3.82 2.14 3.41 2.82Q3 3.5 3 4.32L3 20.33Q3 21.14 3.41 21.83Q3.82 22.51 4.5 22.92Q5.18 23.33 6 23.33L18 23.33Q18.82 23.33 19.5 22.92Q20.18 22.51 20.59 21.83Q21 21.14 21 20.33L21 4.32Q21 3.5 20.59 2.82Q20.18 2.14 19.5 1.73Q18.82 1.32 18 1.32L6 1.32ZM16.49 8.09Q16.8 8.09 17.02 7.87Q17.23 7.66 17.23 7.34Q17.23 7.03 17.02 6.82Q16.8 6.6 16.49 6.6L7.54 6.6Q7.22 6.6 7 6.82Q6.77 7.03 6.77 7.34Q6.77 7.66 7 7.87Q7.22 8.09 7.54 8.09L16.49 8.09ZM13.3 12.26Q13.61 12.26 13.84 12.04Q14.06 11.81 14.06 11.5Q14.06 11.18 13.85 10.97Q13.63 10.75 13.32 10.75L7.54 10.75Q7.22 10.75 7 10.97Q6.77 11.18 6.77 11.5Q6.77 11.81 7 12.04Q7.22 12.26 7.54 12.26L13.3 12.26Z" fill="rgba(0,0,0,0.9019607843137255)"></path></g><defs><mask id="hms_mask_0"><rect width="24" height="24" fill="#ffffff"></rect><g><path d="M17.81 14.06Q16.37 14.06 15.14 14.77Q13.92 15.48 13.21 16.69Q12.5 17.9 12.5 19.34Q12.5 20.78 13.21 22.01Q13.92 23.23 15.14 23.94Q16.37 24.65 17.81 24.65Q19.25 24.65 20.47 23.94Q21.7 23.23 22.4 22.01Q23.11 20.78 23.11 19.34Q23.11 17.9 22.4 16.69Q21.7 15.48 20.47 14.77Q19.25 14.06 17.81 14.06Z" fill="#000000"></path></g></mask></defs><g><path d="M13.8 19.34Q13.8 20.42 14.34 21.35Q14.88 22.27 15.8 22.81Q16.73 23.35 17.81 23.35Q18.89 23.35 19.81 22.81Q20.74 22.27 21.28 21.35Q21.82 20.42 21.82 19.34Q21.82 18.26 21.28 17.35Q20.74 16.44 19.81 15.9Q18.89 15.36 17.81 15.36Q16.73 15.36 15.8 15.9Q14.88 16.44 14.34 17.35Q13.8 18.26 13.8 19.34ZM20.09 19.27Q20.23 19.39 20.24 19.58Q20.26 19.78 20.11 19.92Q19.99 20.04 19.8 20.04Q19.61 20.04 19.49 19.92L18.36 18.79L18.36 21.58Q18.36 21.77 18.23 21.9Q18.1 22.03 17.9 22.03Q17.71 22.03 17.58 21.9Q17.45 21.77 17.45 21.58L17.45 18.77L16.32 19.92Q16.18 20.06 16 20.06Q15.82 20.06 15.67 19.92Q15.55 19.8 15.55 19.61Q15.55 19.42 15.67 19.27L17.42 17.52Q17.62 17.33 17.89 17.33Q18.17 17.33 18.34 17.52L20.09 19.27Z" fill="rgba(0,0,0,0.9019607843137255)"></path></g></svg>